<svg xmlns="http://www.w3.org/2000/svg" version="1.1" xmlns:xlink="http://www.w3.org/1999/xlink" xmlns:svgjs="http://svgjs.dev/svgjs" width="1500" height="1500" viewBox="0 0 1500 1500"><rect width="1500" height="1500" fill="#ffffff"></rect><g transform="matrix(0.6666666666666666,0,0,0.6666666666666666,250.00007343750008,187.66666666666674)"><svg viewBox="0 0 320 360" data-background-color="#1ebbd7" preserveAspectRatio="xMidYMid meet" height="1687" width="1500" xmlns="http://www.w3.org/2000/svg" xmlns:xlink="http://www.w3.org/1999/xlink"><g id="tight-bounds" transform="matrix(1,0,0,1,0.000023499999997511622,0)"><svg viewBox="0 0 320 360" height="360" width="320"><g><svg></svg></g><g><svg viewBox="0 0 320 360" height="360" width="320"><g><path transform="translate(-74.99272,-51.79039) scale(4.65793,4.65793)" d="M20.6 59.9l0.8 1-0.4-1.3c-0.1-0.6-0.8 0.1-0.4 0.3M21.5 59.3c0.3 0.5 0.6 1 0.6 1.5 0 0.7 0.6 1 1.1 1.2-0.7-0.8-1.1-3-1.7-2.7M59.9 16.9c1.7 0 3.3-0.2 5.1 0.2 4.4 1.1 8.1 3.3 10.6 6.4l7 11.2c0.3 2.8 0.9 5.9 0.8 9.3 0.7 0 0.6-1 1.4-1.2-0.8 2-1.2 4.5-1.4 7.4-0.5-1.6 0-4 0.1-5.3-0.7 1.1-1.1 0.3-1.1-0.2 0.1-0.8-0.3-0.7-0.6-1-1.1-1-1.8-2.1-2.6-3.8 0.5-1.3 0.6-3.2-1-4.2-0.5-0.3-1.1-0.8-1.4-1.6-0.4-1.1-1.1-2.4-0.9-4.1 0.1-0.5-1.5 1.1-2.4 0.4-3.9-2.7-7.8-5.8-12.5-8.4-2.5 0-4.3-0.9-5.2-2-0.8-1-0.2-2.3 1-2.4 0.7 0 1.5-0.2 2.1 0.2 0.1-0.4 0.5-0.9 1-0.9M50 14.6l0.2 0.1c1 0.2 1.5 1.6 2.6 1.1 0 0.7 0.1 1.4-0.1 1.9-0.3 0.8-1.2 0.8-1.9 0.8-6.7-0.4-10.6 2.4-14.7 4.8-1.1 0.7-2.3 1.2-3.2 2.1-4.3 4-9 7.7-10.1 15.1l-0.9 8.2c-0.1 0.9-1.1 1.8-0.9 2.9l0.7 4.9c-0.7-0.7-1.1 0.2-0.9 0.6 0.1 0.3 0.5 1.3 1.1 0.4 0.8 1.5 1.6 4.4 2.7 5.7 3.4 4 7.8 7.6 11.4 11.2 0.9-0.2 1.6-0.2 1.8-0.8 0.3 0.6-0.3 1.2-0.8 1.3 1.6 1 3.4 1.9 5.8 2.1 3.1 0.2 6 0.7 8.7 1.4 1.4-0.4 2.8-0.6 4.3-0.7 0.5 0 0.8-0.8 1.4-1l0.1-1c0.6 0.9 0.5-0.3 0.1-0.9 0.7 0.6 0.9 1.1 1.2 1.5 0-0.3 0.8-1.4 0.8-0.1l0.2-1.3c0.3-0.2 0.4 1.1 0.7 0.2 0.3-0.9 0.9-0.2 1.5-0.5-0.2 0.4-0.1 1.2 0.6 0.7l0.8-0.7c0.5 1.2 1.3 0.7 1.7 0.5 4.4-2.8 8.8-6.1 13-9.4l-0.1 1.3 0.5-1.6c0.5 0.5 0.9 0.1 1.1-0.2 0.6-1 1.4-2 2.7-2.9-1.6 4.3-3.5 7.7-5.9 10.5l-1 1.2c0 0.7-0.2 1.6-1 1.7-0.4 0.1-1.2-0.2-1.8 0.4-0.3 0.4 0.7 1.2-0.1 0.6-0.7-0.5-1.4 0-2.2 0.2-0.6 0.2 0.4 0.8 0.6 1.2 0.2 0.4 0.4 0.8 0.3 1.3l-1.1-1.2c-1.3 0.7-2.1 2-3.2 3-0.5 0.4-0.3 1.1-0.3 1.7-0.7 0-1.5-0.2-1.9 0.2-0.3 0.4-0.2 1-0.2 1.6-1-0.1-1.1-1.6-2-1.3-0.9 0.2-1.9 0.3-2.7 0.8 0.6 1.2-1 0.5-0.8 0.7-1.5-0.9-2.8-1.6-4.4-1-3.4-1.1-7.6-0.6-10.7-0.2 0-0.5 0.1-1-0.1-1.1-0.2 0.5-0.8 0.3-0.7 0.3-1.9-1.3-3.8-2.1-5.8-3.2-1.8 0.2-3.5-0.7-4-1.2-1.4-1.3-3-0.6-4.3-0.9-2.8-0.7-3.8-3.6-4.1-5.6-0.2-1-1-1.4-1.3-1.3-1.3-4.2-3.3-8-4.9-11.9-0.4-1-0.3-2-0.3-3.1 0.5 0.2 1 0.1 0.9-0.6-0.5-3.3-1.7-5.8-3-8.2 0.7-3.4 0.8-7.4 2.4-10.4 1.4-2.7 4-4.1 5.8-6.4 0.6-0.8 0.6-1.9 1.2-2.6 2-2 4-4.1 6.2-5.9 1-0.8 2.2 0 3.7-0.3 0.5-1.8 2.5-3.4 4.4-2.9 0.8 0.2 2.4-1.9 2.9-2.1 0.8-0.3 0.4 0.8 0.4 1.5 1.9-1.5 4.5-2.3 6.9-3.2" fill="#000000" fill-rule="nonzero" stroke="none" stroke-width="1" stroke-linecap="butt" stroke-linejoin="miter" stroke-miterlimit="10" stroke-dasharray="" stroke-dashoffset="0" font-family="none" font-weight="none" font-size="none" text-anchor="none" style="mix-blend-mode: normal" data-fill-palette-color="tertiary"></path></g><g transform="matrix(1,0,0,1,84.18236754801134,90)"><svg viewBox="0 0 151.63526490397732 180" height="180" width="151.63526490397732"><g><svg viewBox="0 0 151.63526490397732 180" height="180" width="151.63526490397732"><g><svg viewBox="0 0 192 227.91532050202858" height="180" width="151.63526490397732"><g transform="matrix(1,0,0,1,0,113.39442018048517)"><svg viewBox="0 0 192 114.52090032154341" height="114.52090032154341" width="192"><g id="textblocktransform"><svg viewBox="0 0 192 114.52090032154341" height="114.52090032154341" width="192" id="textblock"><g><svg viewBox="0 0 192 114.52090032154341" height="114.52090032154341" width="192"><g transform="matrix(1,0,0,1,0,0)"><svg width="192" viewBox="2.15 -36.55 62.199999999999996 37.099999999999994" height="114.52090032154341" data-palette-color="#ffffff"><path d="M16.05-33.85L11.85-32.8 11.85-18.3 25.85-32.8 21.3-33.85 21.3-36 34.45-36 34.45-33.85 30.05-32.8 18.35-21.2 33.3-3.1 37.5-2.15 37.5 0 23.55 0 23.55-2.15 26.85-3.15 15-17.8 11.85-14.8 11.85-3.2 16.05-2.15 16.05 0 2.15 0 2.15-2.15 6.85-3.2 6.85-32.8 2.15-33.85 2.15-36 16.05-36 16.05-33.85ZM53.1 0.55L53.1 0.55Q50.15 0.55 47.72-0.35 45.3-1.25 43.7-2.9L43.7-2.9 43.15 0 40.35 0 40.35-11.35 43.4-11.35Q43.7-6.6 45.8-4.4 47.9-2.2 52.15-2.2L52.15-2.2Q55.7-2.2 57.5-3.58 59.3-4.95 59.3-7.65L59.3-7.65Q59.3-9.8 58.22-11.25 57.15-12.7 55.12-13.85 53.1-15 50.3-16.1L50.3-16.1Q47.15-17.4 44.95-18.68 42.75-19.95 41.62-21.78 40.5-23.6 40.5-26.5L40.5-26.5Q40.5-31.25 43.47-33.9 46.45-36.55 51.45-36.55L51.45-36.55Q56.4-36.55 59.5-33.75L59.5-33.75 59.9-36 62.7-36 62.7-24.65 59.85-24.65Q59.85-29.45 58.05-31.65 56.25-33.85 52.4-33.85L52.4-33.85Q45.55-33.85 45.55-27.6L45.55-27.6Q45.55-25.95 46.15-24.88 46.75-23.8 48.32-22.9 49.9-22 52.8-20.75L52.8-20.75Q56.95-19 59.5-17.35 62.05-15.7 63.2-13.78 64.35-11.85 64.35-9.2L64.35-9.2Q64.35-6.15 62.92-3.95 61.5-1.75 58.97-0.6 56.45 0.55 53.1 0.55Z" opacity="1" transform="matrix(1,0,0,1,0,0)" fill="#000000" class="wordmark-text-0" data-fill-palette-color="primary" id="text-0"></path></svg></g></svg></g></svg></g></svg></g><g transform="matrix(1,0,0,1,36.672,0)"><svg viewBox="0 0 118.656 96.68307232196427" height="96.68307232196427" width="118.656"><g><svg xmlns="http://www.w3.org/2000/svg" xmlns:xlink="http://www.w3.org/1999/xlink" version="1.1" x="0" y="0" viewBox="1.5 7.518 65.001 52.964" style="enable-background:new 0 0 68 68;" xml:space="preserve" height="96.68307232196427" width="118.656" class="icon-icon-0" data-fill-palette-color="accent" id="icon-0"><g fill="#ffffff" data-fill-palette-color="accent"><g fill="#ffffff" data-fill-palette-color="accent"><path d="M1.5 45.84c0 1.167 0.95 2.117 2.117 2.117h23.226v6.648h-9.518c-0.482 0-0.875 0.393-0.875 0.875s0.393 0.875 0.875 0.875h20.786c0.482 0 0.875-0.393 0.875-0.875s-0.393-0.875-0.875-0.875h-9.518v-6.648h15.173v-5.186H1.5V45.84z" fill="#000000" data-fill-palette-color="accent"></path><path d="M65.875 19.535H54.687h-9.545c-0.345 0-0.625 0.28-0.625 0.625v21.861 6.686 11.15c0 0.345 0.28 0.625 0.625 0.625h20.734c0.345 0 0.625-0.28 0.625-0.625V20.16C66.5 19.815 66.22 19.535 65.875 19.535zM53.275 20.704h3.445c0.207 0 0.375 0.168 0.375 0.375s-0.168 0.375-0.375 0.375h-3.445c-0.207 0-0.375-0.168-0.375-0.375S53.068 20.704 53.275 20.704zM58.099 58.662h-4.823c-0.207 0-0.375-0.168-0.375-0.375s0.168-0.375 0.375-0.375h4.823c0.207 0 0.375 0.168 0.375 0.375S58.306 58.662 58.099 58.662zM64.594 55.274c0 0.758-0.617 1.375-1.375 1.375H47.797c-0.758 0-1.375-0.617-1.375-1.375V24.743c0-0.758 0.617-1.375 1.375-1.375h15.421c0.758 0 1.375 0.617 1.375 1.375V55.274z" fill="#000000" data-fill-palette-color="accent"></path><path d="M53.937 18.785v-9.15c0-1.167-0.95-2.117-2.117-2.117H3.617C2.45 7.518 1.5 8.468 1.5 9.635v32.387h42.266V20.16c0-0.758 0.617-1.375 1.375-1.375H53.937zM11.732 13.758H30.49v0.75H11.732V13.758zM11.732 21.457h5.928v0.75h-5.928V21.457zM11.732 29.155h16.192v0.75H11.732V29.155zM9.493 37.501l-3.151 1.383v-1.128l1.466-0.623-1.466-0.624v-1.128l3.151 1.383V37.501zM9.493 29.803l-3.151 1.383v-1.128l1.466-0.624L6.342 28.81v-1.127l3.151 1.382V29.803zM9.493 22.104l-3.151 1.383v-1.128l1.466-0.624-1.466-0.624v-1.127l3.151 1.382V22.104zM9.493 14.406l-3.151 1.383v-1.128l1.466-0.624-1.466-0.624v-1.127l3.151 1.382V14.406zM36.905 37.604H11.732v-0.75h25.173V37.604zM43.321 29.905H30.978v-0.75h12.343V29.905zM43.321 22.207H20.713v-0.75h22.607V22.207zM43.321 14.508h-9.777v-0.75h9.777V14.508z" fill="#000000" data-fill-palette-color="accent"></path><path d="M63.219 24.118H47.797c-0.345 0-0.625 0.28-0.625 0.625v30.531c0 0.345 0.28 0.625 0.625 0.625h15.421c0.345 0 0.625-0.28 0.625-0.625V24.743C63.844 24.398 63.563 24.118 63.219 24.118zM53.581 39.637l-0.281 0.828-3.103-1.243v-0.846l3.103-1.243 0.281 0.828L51.315 38.8 53.581 39.637zM54.842 42.107h-1.089l2.41-6.621h1.104L54.842 42.107zM60.825 39.222l-3.102 1.243-0.282-0.828 2.266-0.838-2.266-0.838 0.282-0.828 3.102 1.243V39.222z" fill="#000000" data-fill-palette-color="accent"></path></g></g></svg></g></svg></g><g></g></svg></g></svg></g></svg></g></svg></g><defs></defs></svg><rect width="320" height="360" fill="none" stroke="none" visibility="hidden"></rect></g></svg></g></svg>